<svg xmlns="http://www.w3.org/2000/svg" viewBox="0 0 100 100">
  <defs>
    <linearGradient id="g" x1="0%" y1="0%" x2="100%" y2="100%">
      <stop offset="0%" stop-color="#4f8ef7"/>
      <stop offset="100%" stop-color="#a78bfa"/>
    </linearGradient>
  </defs>
  <rect width="100" height="100" rx="22" fill="#0a0d14"/>
  <!-- Flame / spark shape for Sankalpam -->
  <path d="M50 15 C50 15 65 30 65 45 C65 53 60 58 55 60 C58 55 58 48 54 43 C54 43 56 52 50 55 C44 52 46 43 46 43 C42 48 42 55 45 60 C40 58 35 53 35 45 C35 30 50 15 50 15Z" fill="url(#g)"/>
  <circle cx="50" cy="72" r="6" fill="url(#g)" opacity="0.7"/>
  <circle cx="50" cy="85" r="3" fill="url(#g)" opacity="0.4"/>
</svg>
